HIERARCHY
ROOT hip
{
	OFFSET 0.000000 0.000000 0.000000 
	CHANNELS 6 Xposition Yposition Zposition Xrotation Zrotation Yrotation
	JOINT abdomen
	{
		OFFSET 0.000000 3.402643 0.000000 
		CHANNELS 3 Xrotation Zrotation Yrotation
		JOINT chest
		{
			OFFSET 0.000000 8.438565 -0.680529 
			CHANNELS 3 Xrotation Zrotation Yrotation
			JOINT neck
			{
				OFFSET 0.000000 10.207942 -0.272212 
				CHANNELS 3 Xrotation Zrotation Yrotation
				JOINT head
				{
					OFFSET 0.000000 3.130431 0.000000 
					CHANNELS 3 Xrotation Zrotation Yrotation
					End Site
					{
						OFFSET 0.000000 3.130435 0.000000 
					}
				}
			}
			JOINT lCollar
			{
				OFFSET 3.470700 6.669187 -0.816635 
				CHANNELS 3 Yrotation Zrotation Xrotation
				JOINT lShldr
				{
					OFFSET 3.198488 0.000000 0.000000 
					CHANNELS 3 Zrotation Yrotation Xrotation
					JOINT lForeArm
					{
						OFFSET 10.139888 0.000000 0.000000 
						CHANNELS 3 Yrotation Zrotation Xrotation
						JOINT lHand
						{
							OFFSET 8.370511 0.000000 0.000000 
							CHANNELS 3 Zrotation Yrotation Xrotation
							End Site
							{
								OFFSET 4.083176 0.000000 0.000000 
							}
						}
					}
				}
			}
			JOINT rCollar
			{
				OFFSET -3.470700 6.669187 -0.816635 
				CHANNELS 3 Yrotation Zrotation Xrotation
				JOINT rShldr
				{
					OFFSET -3.198488 0.000000 0.000000 
					CHANNELS 3 Zrotation Yrotation Xrotation
					JOINT rForeArm
					{
						OFFSET -10.139888 0.000000 0.000000 
						CHANNELS 3 Yrotation Zrotation Xrotation
						JOINT rHand
						{
							OFFSET -8.370511 0.000000 0.000000 
							CHANNELS 3 Zrotation Yrotation Xrotation
							End Site
							{
								OFFSET -4.083176 0.000000 0.000000 
							}
						}
					}
				}
			}
		}
	}
	JOINT lThigh
	{
		OFFSET 5.308129 -1.633274 1.361059 
		CHANNELS 3 Xrotation Zrotation Yrotation
		JOINT lShin
		{
			OFFSET -2.041588 -20.007561 0.000000 
			CHANNELS 3 Xrotation Zrotation Yrotation
			JOINT lFoot
			{
				OFFSET 0.000000 -19.190928 -1.224953 
				CHANNELS 3 Xrotation Yrotation Zrotation
				End Site
				{
					OFFSET 0.000000 -2.449906 4.627600 
				}
			}
		}
	}
	JOINT rThigh
	{
		OFFSET -5.308129 -1.633274 1.361059 
		CHANNELS 3 Xrotation Zrotation Yrotation
		JOINT rShin
		{
			OFFSET 2.041588 -20.007561 0.000000 
			CHANNELS 3 Xrotation Zrotation Yrotation
			JOINT rFoot
			{
				OFFSET 0.000000 -19.190928 -1.224953 
				CHANNELS 3 Xrotation Yrotation Zrotation
				End Site
				{
					OFFSET 0.000000 -2.449906 4.627600 
				}
			}
		}
	}
}
MOTION
Frames: 14
Frame Time: 0.033333
-10.816747 41.273884 9.692394 -6.240234 -13.388672 22.454691 0.000000 0.000000 0.000000 -0.888672 -5.185547 -1.015625 -8.583984 16.025391 3.232422 3.925781 -20.712893 17.252403 -16.533201 -7.890625 -4.891238 18.027342 -64.277344 -56.406250 -101.640625 -3.125000 -13.125000 -14.248047 21.630861 -5.976563 -21.181641 12.011720 -6.591797 69.560547 44.052734 56.074219 126.738289 -5.332032 57.969658 -22.275391 10.039063 -10.087891 -11.270094 44.121098 11.642982 53.955845 -3.702305 0.472272 -18.497660 4.943686 -23.714069 -20.748455 -2.695841 14.900363 39.357178 -0.755906 39.900196 -20.800549 -5.697544 23.377234 
-10.675246 41.245525 8.864390 -3.281250 -13.144531 20.128244 0.000000 0.000000 0.000000 -0.283203 -5.283208 -0.264571 -10.742188 10.136718 9.218750 8.066406 -17.089846 16.413145 -12.021484 -6.630860 -1.865234 2.968750 -66.083984 -23.055801 -99.677734 -2.412109 -0.282792 -3.046875 12.255859 -5.029297 -18.457033 12.041015 -3.720704 61.328125 47.099613 54.030594 125.136719 -5.351563 56.973072 -21.865234 9.375001 -9.873047 -13.778683 41.860493 11.245234 54.241192 -3.656155 2.251741 -18.882980 4.917797 -23.198685 -23.553392 -3.525366 17.494246 37.720554 -0.696265 37.323639 -20.627140 -5.556469 22.952108 
-10.592643 41.424892 8.147069 -0.947266 -12.060548 21.114756 0.000000 0.000000 0.000000 0.097656 -5.361327 -0.166928 -5.683593 7.226563 12.052010 7.841796 -20.156250 18.085936 -11.250000 -9.599609 -0.673828 -18.906248 -62.822262 -3.602437 -91.621094 -1.445313 15.058841 -5.771485 0.781250 -4.765636 -12.900391 13.076172 -1.406250 53.427734 44.638672 53.076176 122.724609 -5.371093 55.361328 -21.718750 9.648438 -9.900706 -17.312893 38.744015 10.149036 53.673954 -3.645894 3.575597 -18.298901 4.404813 -21.472084 -25.295816 -5.215837 19.604027 36.646156 -0.740231 33.218933 -19.690893 -5.440320 23.326643 
-10.700203 41.743572 7.657042 0.976563 -12.441407 25.685005 0.000000 0.000000 0.000000 -0.029297 -5.146484 -0.693359 0.673828 7.558594 10.332032 4.238281 -23.896484 19.859327 -14.882812 -16.328125 -2.204287 -37.207031 -55.810543 3.847657 -89.140625 -0.976563 22.226563 -9.228517 -8.046876 -3.964844 -8.437500 9.248047 -1.552734 58.203121 36.699223 54.902344 119.931648 -5.537110 55.967735 -21.728516 9.785156 -9.920216 -22.840225 37.027473 7.908442 51.945885 -3.682779 2.351724 -17.024040 3.789604 -19.437435 -25.462053 -6.797368 19.369026 34.250519 -0.679311 28.299629 -18.964010 -5.546985 24.455618 
-10.847160 42.015896 7.399272 2.753906 -13.857422 30.548052 0.000000 0.000000 0.000000 -0.449219 -4.785157 -1.113281 5.419922 6.943359 8.897666 -0.966797 -23.525391 20.595701 -18.183594 -21.933596 -4.853515 -49.345703 -43.476563 5.862421 -95.117188 -1.181641 19.111530 -9.687501 -7.597657 -3.906250 -4.765625 3.007812 -2.714844 69.277344 28.242189 57.045639 118.457039 -5.732422 58.311516 -22.050781 9.443359 -9.910505 -27.614294 36.235603 7.042755 49.234592 -3.792461 -0.380727 -16.023989 3.284185 -17.785250 -24.965345 -7.939552 18.920666 30.916695 -0.491759 23.332905 -18.936371 -5.890150 25.980314 
-10.932850 42.116718 7.271727 4.726563 -14.648437 34.034252 0.000000 0.000000 0.000000 -0.751953 -4.453125 -0.976563 9.130859 4.765625 9.140625 -4.951172 -21.621094 19.918274 -18.212891 -24.140625 -6.269531 -57.607422 -31.660156 8.520266 -102.060547 -1.289063 17.441628 -7.412109 -4.755859 -4.405105 -1.279297 -1.005859 -3.281250 76.552734 25.683592 58.613281 118.408203 -5.791016 59.345703 -22.783205 9.023437 -9.970703 -30.132032 34.573460 7.450788 46.065845 -3.867173 -2.256477 -16.080523 3.005749 -16.209196 -24.876379 -9.355389 19.488419 28.644413 -0.431697 19.009674 -19.861340 -6.261125 26.745745 
-11.006121 42.105991 7.224913 6.406250 -14.433594 37.552349 0.000000 0.000000 0.000000 -0.683594 -4.023438 -0.469435 11.796875 3.349610 9.501954 -5.380859 -20.712889 18.082485 -15.917970 -24.296877 -5.722657 -64.472656 -25.166016 14.341550 -107.031250 -1.103516 20.156439 -4.580078 -5.361401 -4.815424 1.728516 -1.699219 -2.587891 77.402344 29.667973 59.067333 119.072273 -5.664063 57.666981 -23.095701 8.886719 -9.998490 -31.450487 31.537483 6.729072 42.911369 -3.869523 -2.471303 -16.577692 2.703927 -14.369692 -24.631632 -11.405790 19.484449 28.047108 -0.459204 15.636323 -21.640318 -6.527707 25.964964 
-11.121654 42.052959 7.328635 7.119140 -13.857421 41.868748 0.000000 0.000000 0.000000 -0.380859 -3.408203 0.078125 14.111328 3.945313 9.072267 -3.886719 -20.830080 15.914495 -12.597655 -23.193359 -3.882873 -69.755859 -22.558596 20.517582 -112.099609 -0.917969 22.841795 -3.925781 -5.898438 -4.912109 4.394531 0.576172 -1.054786 74.667969 35.898438 58.101429 119.726563 -5.429688 54.112247 -22.724607 8.867188 -9.920369 -32.435677 28.451504 4.468357 40.319435 -3.869649 -2.328566 -16.482843 2.391140 -12.939147 -23.147886 -13.133535 18.103895 28.075344 -0.551454 12.363192 -23.524239 -6.525107 24.272167 
-11.260221 42.039013 7.639189 6.865235 -13.212892 45.987614 0.000000 0.000000 0.000000 -0.048828 -2.695313 0.585938 17.402344 5.068359 8.408079 -3.417969 -21.181641 14.003906 -7.539063 -20.937500 -1.621094 -71.884766 -22.597654 25.709137 -116.230461 -0.859375 23.574364 -2.695313 -4.482422 -5.107421 7.304687 4.619141 0.585938 71.962891 41.279297 57.682224 119.599602 -5.214844 50.410160 -22.451174 8.603517 -9.804688 -32.750507 26.442530 1.864944 38.397873 -3.865076 -2.677518 -15.525643 2.276953 -12.758612 -20.591396 -13.807196 16.387350 27.775047 -0.599046 8.883171 -24.779270 -6.304850 22.502930 
-11.404128 42.130184 8.090341 6.259766 -12.382813 49.376415 0.000000 0.000000 0.000000 0.302734 -1.943359 1.035156 21.562502 5.195312 7.998930 -4.238281 -20.976561 12.340254 -0.556641 -18.691437 0.589066 -71.259766 -25.976564 31.445313 -117.304688 -0.771484 24.746094 0.302734 -3.134766 -5.507813 10.107422 8.652345 2.089844 70.888672 45.527348 59.137825 118.632820 -5.117188 48.008682 -22.822266 7.998045 -9.746094 -32.397305 25.211203 -0.624753 36.868004 -3.849051 -3.095169 -13.997643 2.181202 -13.417825 -17.789227 -13.885145 14.964868 27.295580 -0.618774 5.907359 -25.315483 -5.996064 21.041265 
-11.592585 42.266644 8.549390 5.820313 -11.542970 52.386326 0.000000 0.000000 0.000000 0.605469 -1.210938 1.347450 24.902344 4.462891 7.647244 -4.902344 -19.951174 10.917970 5.517578 -17.597658 2.324219 -69.970703 -30.917969 36.367191 -116.562508 -0.605469 27.373089 1.562500 -3.300766 -5.684128 12.216798 11.269532 3.386763 71.874992 48.242188 61.669922 117.685555 -5.078125 46.905159 -23.476563 7.636718 -9.793626 -32.122330 24.048468 -2.634831 35.674652 -3.819566 -2.934855 -12.107133 2.086727 -13.991489 -15.502213 -13.942263 13.144979 27.085617 -0.615012 4.189464 -25.422331 -5.721313 19.968910 
-11.871106 42.420856 8.923693 5.791016 -11.123049 54.816082 0.000000 0.000000 0.000000 0.771484 -0.664061 1.503797 26.601563 3.750000 7.412109 -5.214844 -18.896482 10.107423 8.271484 -16.289064 3.137504 -69.531250 -33.662109 37.968750 -115.878899 -0.429688 30.048903 1.474609 -4.677734 -5.732422 13.876953 12.626954 4.109193 74.843750 48.837891 64.450706 117.255867 -5.039063 45.821167 -23.730469 7.705078 -9.853516 -32.660221 22.945721 -2.811551 35.283092 -3.800629 -1.811409 -9.748484 1.890881 -13.929948 -14.455312 -13.960010 10.981339 27.344444 -0.667999 3.495584 -25.250875 -5.452434 19.230698 
-12.218046 42.573528 9.189152 6.123047 -11.083984 56.183277 0.000000 0.000000 0.000000 0.820313 -0.410156 1.630859 27.519529 3.583984 7.509766 -5.781250 -18.964844 9.990233 8.779297 -13.447266 3.224927 -70.791016 -33.564449 38.056644 -115.634758 -0.283203 32.197334 2.998047 -5.458984 -5.996094 15.302733 14.238279 4.267578 77.792969 48.193359 66.667435 116.835930 -4.951172 44.296867 -23.310547 7.714845 -9.775391 -33.459282 22.075390 -0.726109 35.395042 -3.751323 0.601638 -7.414129 1.542905 -13.225126 -14.660921 -13.833306 9.612751 27.922928 -0.717131 3.143822 -24.927494 -5.295837 18.758030 
-12.562710 42.719044 9.352915 6.484375 -10.947265 56.798534 0.000000 0.000000 0.000000 0.888672 -0.244141 1.718708 28.417969 3.896484 7.734374 -6.376953 -20.156250 10.156251 8.466797 -10.595703 3.378906 -72.910156 -32.617188 38.291016 -115.488281 -0.156250 34.248070 5.253907 -4.912109 -6.299663 16.025391 16.835938 4.323344 78.613281 47.646488 67.539063 115.693367 -4.921875 43.243027 -22.802734 7.636718 -9.667969 -33.421429 21.236160 1.736894 34.656422 -3.688959 3.620754 -5.579157 1.274545 -12.072954 -15.160083 -13.746254 9.313576 28.509951 -0.785599 2.806810 -24.477028 -5.173103 18.578751 
